<?xml version="1.0" encoding="utf-8"?>
<!-- Generator: Adobe Illustrator 16.0.0, SVG Export Plug-In . SVG Version: 6.00 Build 0)  -->
<!DOCTYPE svg PUBLIC "-//W3C//DTD SVG 1.1//EN" "http://www.w3.org/Graphics/SVG/1.1/DTD/svg11.dtd">
<svg version="1.1" id="Layer_1" xmlns="http://www.w3.org/2000/svg" xmlns:xlink="http://www.w3.org/1999/xlink" x="0px" y="0px"
	 width="570.109px" height="207.312px" viewBox="0 0 570.109 207.312" enable-background="new 0 0 570.109 207.312"
	 xml:space="preserve">
<g>
	<g>
		<path fill-rule="evenodd" clip-rule="evenodd" d="M570.626,207.831c-190.036,0-380.071,0-570.108,0c0-69.104,0-138.208,0-207.313
			c190.036,0,380.072,0,570.108,0C570.626,69.622,570.626,138.726,570.626,207.831z M345.126,74.367
			c0.196-3.362-1.505-3.994-4.222-3.881c-4.483,0.188-8.981,0.104-13.472,0.026c-1.809-0.031-2.44,0.702-2.438,2.456
			c0.028,22.977,0.034,45.953-0.01,68.93c-0.003,1.851,0.731,2.406,2.462,2.38c4.404-0.065,8.811-0.021,13.216-0.021
			c4.362-0.001,4.365-0.002,4.365-4.263c0.002-12.697-0.001-25.396,0.004-38.093c0.001-4.146,0.857-8.012,3.371-11.453
			c3.725-5.099,15.313-6.277,18.438,2.2c1.106,3.004,1.677,6.365,1.724,9.574c0.189,12.954,0.11,25.912,0.052,38.869
			c-0.011,2.291,0.735,3.275,3.151,3.205c4.66-0.135,9.332-0.161,13.99,0.011c2.473,0.092,3.021-0.836,3.002-3.152
			c-0.103-12.697-0.087-25.396-0.026-38.092c0.02-4.08,0.528-8.106,2.855-11.646c2.614-3.975,6.458-5.297,10.983-4.839
			c4.422,0.447,7.437,2.933,8.456,7.212c0.831,3.492,1.406,7.126,1.457,10.708c0.173,12.35,0.108,24.703,0.024,37.055
			c-0.013,1.99,0.479,2.794,2.581,2.743c4.834-0.117,9.675-0.109,14.51-0.005c2.155,0.046,2.859-0.783,2.851-2.892
			c-0.058-14.685,0.103-29.37-0.063-44.052c-0.212-18.624-15.972-31.138-34.215-27.417c-6.35,1.295-11.684,4.467-16.401,8.77
			C373.23,68.941,356.813,65.658,345.126,74.367z M264.35,75.496c-0.078-0.579-0.147-0.914-0.165-1.25
			c-0.179-3.479-0.396-3.703-3.729-3.708c-4.492-0.005-8.985,0.087-13.473-0.04c-2.158-0.061-2.858,0.709-2.855,2.844
			c0.046,33.511,0.046,67.023-0.001,100.535c-0.002,2.012,0.627,2.783,2.671,2.74c4.662-0.099,9.328-0.02,13.992-0.034
			c3.004-0.01,3.378-0.385,3.382-3.471c0.012-10.277,0.001-20.556,0.011-30.834c0.001-0.901,0.082-1.804,0.132-2.839
			c17.733,12.316,39.835,4.861,49.525-7.611c11.384-14.652,11.028-35.604-0.952-49.726C301.363,68.519,279.381,64.717,264.35,75.496
			z M81.742,74.255c0-1.099,0-2.026,0-2.952c0-11.313,0.008-22.626-0.005-33.939c-0.003-2.972-0.541-3.515-3.419-3.525
			c-4.491-0.017-8.982,0.05-13.471-0.028c-2.147-0.037-3.149,0.69-3.146,2.989c0.038,34.975,0.039,69.949-0.005,104.925
			c-0.003,1.927,0.651,2.593,2.55,2.56c4.834-0.086,9.673-0.108,14.507,0.007c2.301,0.055,3.031-0.929,3.011-3.083
			c-0.061-6.735-0.035-13.473-0.018-20.208c0.018-6.821-0.189-13.655,0.165-20.46c0.408-7.845,5.951-13.354,13.415-13.986
			c8.373-0.708,14.443,3.282,16.391,11.03c0.581,2.313,0.753,4.778,0.768,7.175c0.074,12.176,0.083,24.354-0.011,36.528
			c-0.017,2.213,0.539,3.091,2.881,3.016c4.745-0.151,9.501-0.142,14.247-0.004c2.251,0.066,2.992-0.655,2.978-2.946
			c-0.088-14.594,0.155-29.192-0.107-43.782c-0.216-12.043-5.669-21.176-17.113-25.65C104.129,67.531,92.932,68.232,81.742,74.255z
			 M156.979,115.233c1.418,0,2.354,0,3.289,0c16.061,0,32.122-0.006,48.182,0.01c1.842,0.002,3.332-0.021,3.566-2.557
			c2.255-24.395-16.413-48.037-45.275-42.664c-23.514,4.377-37.35,29.971-28.221,51.949c6.29,15.145,22.026,24.504,37.64,23.71
			c11.718-0.596,21.269-5.274,28.796-14.179c1.618-1.913,1.36-3.071-0.791-4.366c-3.251-1.958-6.529-3.871-9.802-5.793
			c-3.128-1.838-3.217-1.815-5.463,0.982c-4.6,5.731-10.642,7.888-17.724,6.503C163.904,127.407,159.65,122.46,156.979,115.233z
			 M457.057,115.234c1.381,0,2.307,0,3.232,0c14.766,0,29.531,0,44.297-0.001c7.791,0,7.867-0.002,7.634-7.917
			c-0.666-22.647-18.947-42.338-45.057-37.248c-15.571,3.036-26.113,12.584-30.051,28.01c-3.958,15.508,0.593,28.937,13.08,39.118
			c16.343,13.322,41.336,10.778,54.495-5.228c2.011-2.446,1.849-3.463-0.832-5.055c-3.337-1.98-6.717-3.894-10.008-5.946
			c-1.883-1.175-3.161-1.043-4.549,0.867c-4.387,6.035-10.52,8.339-17.724,7.065C464.168,127.59,459.793,122.606,457.057,115.234z
			 M215.751,89.104c0,17.432,0.026,34.865-0.035,52.296c-0.007,2.052,0.491,2.961,2.736,2.898c4.916-0.139,9.837-0.093,14.756-0.017
			c1.813,0.027,2.602-0.441,2.598-2.471c-0.055-34.95-0.055-69.901-0.005-104.852c0.003-2.32-0.926-3.004-3.089-2.958
			c-4.485,0.096-8.975,0.018-13.462,0.031c-3.268,0.01-3.496,0.243-3.497,3.55C215.748,54.758,215.751,71.931,215.751,89.104z"/>
		<path fill-rule="evenodd" clip-rule="evenodd" fill="#FFFFFF" d="M570.626,207.831c0-69.104,0-138.208,0-207.313
			c0.173,0.691,0.496,1.382,0.497,2.073c0.025,30.061,0.021,60.121,0.021,90.181c0,37.575,0.003,75.15-0.021,112.726
			C571.122,206.276,570.799,207.053,570.626,207.831z"/>
		<path fill-rule="evenodd" clip-rule="evenodd" fill="#FFFFFF" d="M345.126,74.367c11.688-8.709,28.104-5.426,36.645,4.331
			c4.718-4.303,10.052-7.475,16.401-8.77c18.243-3.721,34.003,8.793,34.215,27.417c0.166,14.682,0.006,29.368,0.063,44.052
			c0.009,2.108-0.695,2.938-2.851,2.892c-4.835-0.104-9.676-0.112-14.51,0.005c-2.102,0.051-2.594-0.753-2.581-2.743
			c0.084-12.352,0.148-24.705-0.024-37.055c-0.051-3.581-0.626-7.216-1.457-10.708c-1.02-4.279-4.034-6.765-8.456-7.212
			c-4.525-0.458-8.369,0.865-10.983,4.839c-2.327,3.54-2.836,7.566-2.855,11.646c-0.061,12.697-0.076,25.395,0.026,38.092
			c0.019,2.316-0.529,3.244-3.002,3.152c-4.658-0.172-9.33-0.146-13.99-0.011c-2.416,0.07-3.162-0.914-3.151-3.205
			c0.059-12.957,0.138-25.915-0.052-38.869c-0.047-3.209-0.617-6.569-1.724-9.574c-3.124-8.477-14.713-7.298-18.438-2.2
			c-2.514,3.441-3.37,7.308-3.371,11.453c-0.005,12.697-0.002,25.396-0.004,38.093c0,4.261-0.003,4.262-4.365,4.263
			c-4.405,0.001-8.812-0.044-13.216,0.021c-1.73,0.026-2.465-0.529-2.462-2.38c0.044-22.977,0.038-45.953,0.01-68.93
			c-0.002-1.754,0.63-2.487,2.438-2.456c4.49,0.077,8.988,0.161,13.472-0.026C343.621,70.373,345.322,71.004,345.126,74.367z"/>
		<path fill-rule="evenodd" clip-rule="evenodd" fill="#FFFFFF" d="M264.35,75.496c15.031-10.779,37.013-6.977,48.538,6.607
			c11.98,14.122,12.336,35.073,0.952,49.726c-9.689,12.473-31.792,19.928-49.525,7.611c-0.05,1.035-0.131,1.938-0.132,2.839
			c-0.009,10.278,0.001,20.557-0.011,30.834c-0.004,3.086-0.378,3.461-3.382,3.471c-4.664,0.015-9.33-0.064-13.992,0.034
			c-2.044,0.043-2.673-0.729-2.671-2.74c0.047-33.512,0.047-67.023,0.001-100.535c-0.003-2.134,0.697-2.905,2.855-2.844
			c4.488,0.127,8.981,0.034,13.473,0.04c3.333,0.004,3.55,0.229,3.729,3.708C264.203,74.583,264.272,74.917,264.35,75.496z
			 M282.938,128.606c3.689-0.02,6.697-0.926,9.758-2.957c9.969-6.617,12.349-21.618,4.989-31.446
			c-7.458-9.96-20.752-10.297-28.708-0.729c-6.315,7.596-6.57,19.88-0.433,27.641C272.188,125.723,276.876,128.546,282.938,128.606z
			"/>
		<path fill-rule="evenodd" clip-rule="evenodd" fill="#FFFFFF" d="M81.742,74.255c11.19-6.023,22.387-6.725,33.615-2.334
			c11.444,4.474,16.897,13.607,17.113,25.65c0.262,14.59,0.02,29.188,0.107,43.782c0.014,2.291-0.727,3.013-2.978,2.946
			c-4.746-0.138-9.501-0.147-14.247,0.004c-2.342,0.075-2.897-0.803-2.881-3.016c0.094-12.175,0.085-24.353,0.011-36.528
			c-0.015-2.397-0.187-4.862-0.768-7.175c-1.948-7.749-8.018-11.739-16.391-11.03c-7.464,0.632-13.007,6.142-13.415,13.986
			c-0.354,6.805-0.147,13.639-0.165,20.46c-0.017,6.735-0.043,13.473,0.018,20.208c0.02,2.154-0.71,3.138-3.011,3.083
			c-4.833-0.115-9.672-0.093-14.507-0.007c-1.899,0.033-2.553-0.633-2.55-2.56C61.739,106.75,61.738,71.775,61.7,36.8
			c-0.002-2.299,0.999-3.026,3.146-2.989c4.489,0.078,8.98,0.011,13.471,0.028c2.878,0.011,3.416,0.553,3.419,3.525
			c0.014,11.313,0.005,22.625,0.005,33.939C81.742,72.229,81.742,73.157,81.742,74.255z"/>
		<path fill-rule="evenodd" clip-rule="evenodd" fill="#FFFFFF" d="M156.979,115.233c2.671,7.228,6.925,12.174,14.198,13.596
			c7.083,1.385,13.124-0.771,17.724-6.503c2.246-2.798,2.334-2.82,5.463-0.982c3.272,1.922,6.55,3.835,9.802,5.793
			c2.151,1.295,2.409,2.453,0.791,4.366c-7.528,8.904-17.078,13.583-28.796,14.179c-15.614,0.794-31.35-8.565-37.64-23.71
			c-9.128-21.979,4.708-47.572,28.221-51.949c28.862-5.373,47.53,18.269,45.275,42.664c-0.234,2.535-1.724,2.559-3.566,2.557
			c-16.061-0.016-32.121-0.01-48.182-0.01C159.333,115.233,158.397,115.233,156.979,115.233z M157.398,98.992
			c5.628,0,11.057,0,16.485,0c5.481,0,10.962,0,16.47,0c-0.675-6.727-6.868-12.444-13.743-12.982
			C167.816,85.321,159.747,90.638,157.398,98.992z"/>
		<path fill-rule="evenodd" clip-rule="evenodd" fill="#FFFFFF" d="M457.057,115.234c2.736,7.372,7.111,12.356,14.519,13.666
			c7.204,1.273,13.337-1.03,17.724-7.065c1.388-1.91,2.666-2.042,4.549-0.867c3.291,2.053,6.671,3.966,10.008,5.946
			c2.681,1.592,2.843,2.608,0.832,5.055c-13.159,16.006-38.152,18.55-54.495,5.228c-12.487-10.181-17.038-23.609-13.08-39.118
			c3.938-15.426,14.479-24.974,30.051-28.01c26.109-5.09,44.391,14.601,45.057,37.248c0.233,7.915,0.157,7.917-7.634,7.917
			c-14.766,0.001-29.531,0.001-44.297,0.001C459.363,115.234,458.438,115.234,457.057,115.234z M490.447,98.908
			c-0.86-7.522-7.656-12.95-15.865-12.924c-7.804,0.024-16.15,6.391-16.866,12.924C468.579,98.908,479.436,98.908,490.447,98.908z"
			/>
		<path fill-rule="evenodd" clip-rule="evenodd" fill="#FFFFFF" d="M215.751,89.104c0-17.173-0.003-34.347,0.002-51.52
			c0.001-3.308,0.229-3.54,3.497-3.55c4.487-0.014,8.977,0.064,13.462-0.031c2.164-0.046,3.092,0.637,3.089,2.958
			c-0.05,34.951-0.05,69.901,0.005,104.852c0.003,2.029-0.786,2.498-2.598,2.471c-4.918-0.076-9.84-0.122-14.756,0.017
			c-2.245,0.063-2.743-0.847-2.736-2.898C215.777,123.969,215.751,106.537,215.751,89.104z"/>
		<path fill-rule="evenodd" clip-rule="evenodd" d="M282.938,128.606c-6.061-0.06-10.749-2.883-14.394-7.491
			c-6.137-7.761-5.882-20.045,0.433-27.641c7.956-9.568,21.25-9.23,28.708,0.729c7.359,9.828,4.979,24.829-4.989,31.446
			C289.635,127.68,286.627,128.586,282.938,128.606z"/>
		<path fill-rule="evenodd" clip-rule="evenodd" d="M157.398,98.992c2.348-8.354,10.417-13.671,19.212-12.982
			c6.875,0.538,13.067,6.255,13.743,12.982c-5.507,0-10.989,0-16.47,0C168.456,98.992,163.027,98.992,157.398,98.992z"/>
		<path fill-rule="evenodd" clip-rule="evenodd" d="M490.447,98.908c-11.012,0-21.868,0-32.731,0
			c0.716-6.533,9.063-12.9,16.866-12.924C482.791,85.958,489.587,91.385,490.447,98.908z"/>
	</g>
</g>
</svg>
